<svg width="55" height="13" viewBox="0 0 55 13" fill="none" xmlns="http://www.w3.org/2000/svg">
<g clip-path="url(#clip0_3487_5173)">
<path d="M4.23844 12.199C6.57927 12.199 8.47689 10.3014 8.47689 7.96056C8.47689 5.61973 6.57927 3.72211 4.23844 3.72211C1.89762 3.72211 0 5.61973 0 7.96056C0 10.3014 1.89762 12.199 4.23844 12.199Z" fill="#3896EC"/>
<path fill-rule="evenodd" clip-rule="evenodd" d="M8.19463 0.896484L12.9979 8.24312H3.39075L8.19463 0.896484Z" fill="#ADBBFF"/>
<path d="M23.9415 3.85585V9.5119H21.8542V8.74365C21.6822 9.01087 21.4321 9.22241 21.1037 9.37829C20.7754 9.52674 20.4158 9.60097 20.0249 9.60097C19.5168 9.60097 19.0633 9.48221 18.6646 9.24468C18.2659 9.00716 17.9532 8.66943 17.7265 8.23149C17.5076 7.78613 17.3982 7.27397 17.3982 6.69501C17.3982 6.10862 17.5115 5.58903 17.7383 5.13625C17.965 4.68347 18.2777 4.3309 18.6764 4.07853C19.0751 3.82616 19.5246 3.69997 20.0249 3.69997C20.4158 3.69997 20.7715 3.78162 21.092 3.94492C21.4203 4.1008 21.6744 4.31234 21.8542 4.57956V3.85585H23.9415ZM20.6816 8.09789C21.0568 8.09789 21.3461 7.97541 21.5493 7.73046C21.7526 7.48552 21.8542 7.13294 21.8542 6.67274C21.8542 6.20511 21.7526 5.84883 21.5493 5.60388C21.3461 5.35151 21.0568 5.22533 20.6816 5.22533C20.3141 5.22533 20.0249 5.35522 19.8138 5.61501C19.6027 5.86738 19.4972 6.22738 19.4972 6.69501C19.4972 7.14779 19.5988 7.49665 19.8021 7.7416C20.0053 7.97912 20.2985 8.09789 20.6816 8.09789Z" fill="white"/>
<path d="M25.5548 9.5119V3.85585H27.6772V9.5119H25.5548ZM25.4961 1.0835H27.7124V2.89833H25.4961V1.0835Z" fill="white"/>
<path d="M33.0604 3.72224C33.3496 3.72224 33.5724 3.76307 33.7288 3.84472V5.68182C33.3926 5.53337 33.0682 5.45914 32.7555 5.45914C31.8643 5.45914 31.4187 5.86367 31.4187 6.67274V9.5119H29.2962V5.48141C29.2962 4.87275 29.2649 4.3309 29.2024 3.85585H31.1959L31.3249 4.80224C31.4656 4.45337 31.6923 4.18616 32.005 4.00059C32.3177 3.81503 32.6695 3.72224 33.0604 3.72224Z" fill="white"/>
<path d="M38.8344 7.97541C38.9751 7.97541 39.1627 7.95314 39.3972 7.90861V9.43396C39.108 9.5453 38.7406 9.60097 38.295 9.60097C37.4898 9.60097 36.8761 9.38571 36.4539 8.9552C36.0396 8.52469 35.8324 7.92716 35.8324 7.16263V5.33667H34.7184V3.85585H35.8324V2.57545L37.9549 1.92968V3.85585H39.3855V5.33667H37.9549V7.16263C37.9549 7.42985 38.037 7.63397 38.2012 7.775C38.3731 7.90861 38.5842 7.97541 38.8344 7.97541Z" fill="white"/>
<path d="M46.8202 3.85585V9.5119H44.7329V8.74365C44.5609 9.01087 44.3108 9.22241 43.9824 9.37829C43.6541 9.52674 43.2945 9.60097 42.9036 9.60097C42.3955 9.60097 41.942 9.48221 41.5434 9.24468C41.1447 9.00716 40.832 8.66943 40.6052 8.23149C40.3864 7.78613 40.2769 7.27397 40.2769 6.69501C40.2769 6.10862 40.3903 5.58903 40.617 5.13625C40.8437 4.68347 41.1564 4.3309 41.5551 4.07853C41.9538 3.82616 42.4033 3.69997 42.9036 3.69997C43.2945 3.69997 43.6502 3.78162 43.9707 3.94492C44.299 4.1008 44.5531 4.31234 44.7329 4.57956V3.85585H46.8202ZM43.5603 8.09789C43.9355 8.09789 44.2248 7.97541 44.428 7.73046C44.6313 7.48552 44.7329 7.13294 44.7329 6.67274C44.7329 6.20511 44.6313 5.84883 44.428 5.60388C44.2248 5.35151 43.9355 5.22533 43.5603 5.22533C43.1929 5.22533 42.9036 5.35522 42.6925 5.61501C42.4815 5.86738 42.3759 6.22738 42.3759 6.69501C42.3759 7.14779 42.4776 7.49665 42.6808 7.7416C42.8841 7.97912 43.1772 8.09789 43.5603 8.09789Z" fill="white"/>
<path d="M52.3618 3.69997C52.87 3.69997 53.3234 3.82616 53.7221 4.07853C54.1208 4.3309 54.4335 4.68347 54.6602 5.13625C54.8869 5.58903 55.0002 6.10862 55.0002 6.69501C55.0002 7.27397 54.8869 7.78613 54.6602 8.23149C54.4413 8.66943 54.1325 9.00716 53.7338 9.24468C53.3351 9.48221 52.8778 9.60097 52.3618 9.60097C51.9709 9.60097 51.6152 9.53045 51.2947 9.38942C50.9742 9.24097 50.7279 9.03685 50.556 8.77706V11.9168H48.4335V5.48141C48.4335 4.87275 48.4022 4.3309 48.3397 3.85585H50.3332L50.4504 4.73543C50.599 4.42368 50.8452 4.17502 51.1892 3.98946C51.5331 3.79647 51.924 3.69997 52.3618 3.69997ZM51.7169 8.09789C52.0999 8.09789 52.3892 7.97912 52.5846 7.7416C52.78 7.50407 52.8778 7.15521 52.8778 6.69501C52.8778 6.22738 52.7761 5.86738 52.5729 5.61501C52.3774 5.35522 52.0921 5.22533 51.7169 5.22533C51.3338 5.22533 51.0406 5.3478 50.8374 5.59275C50.6341 5.83769 50.5325 6.19769 50.5325 6.67274C50.5325 7.13294 50.6341 7.48552 50.8374 7.73046C51.0406 7.97541 51.3338 8.09789 51.7169 8.09789Z" fill="white"/>
</g>
<defs>
<clipPath id="clip0_3487_5173">
<rect width="55" height="13" fill="white"/>
</clipPath>
</defs>
</svg>
